<?xml version="1.0" standalone="no"?>
<!DOCTYPE svg PUBLIC "-//W3C//DTD SVG 20010904//EN"
 "http://www.w3.org/TR/2001/REC-SVG-20010904/DTD/svg10.dtd">
<svg version="1.0" xmlns="http://www.w3.org/2000/svg"
 width="1000.000000pt" height="1000.000000pt" viewBox="0 0 1000.000000 1000.000000"
 preserveAspectRatio="xMidYMid meet">
<metadata>
Created by potrace 1.14, written by Peter Selinger 2001-2017
</metadata>
<g transform="translate(0.000000,1000.000000) scale(0.100000,-0.100000)"
fill="#000000" stroke="none">
<path d="M4600 6865 l0 -1465 -1465 0 -1465 0 0 -400 0 -400 1465 0 1465 0 0
-1465 0 -1465 400 0 400 0 0 1465 0 1465 1465 0 1465 0 0 400 0 400 -1465 0
-1465 0 0 1465 0 1465 -400 0 -400 0 0 -1465z"/>
<path d="M6876 8314 c-509 -92 -919 -510 -1000 -1021 -107 -675 351 -1308
1027 -1418 377 -61 764 60 1044 327 151 145 258 312 322 504 81 240 82 531 4
769 -143 438 -516 762 -967 840 -110 19 -323 18 -430 -1z m369 -599 c179 -45
337 -170 414 -327 59 -120 74 -190 69 -317 -8 -174 -63 -302 -184 -423 -247
-250 -644 -249 -895 1 -250 250 -251 649 -2 893 92 91 176 141 293 172 73 19
230 20 305 1z"/>
<path d="M3725 8244 c-45 -15 -85 -52 -438 -407 l-388 -391 -162 160 c-538
529 -595 583 -637 604 -29 15 -69 25 -115 28 -129 8 -238 -57 -292 -175 -21
-46 -25 -66 -21 -131 6 -129 6 -128 428 -543 l379 -371 -370 -377 c-417 -424
-424 -433 -423 -556 1 -225 225 -364 432 -268 23 10 177 158 411 395 206 208
377 377 382 376 4 -2 176 -169 383 -371 420 -412 420 -411 546 -412 122 0 213
56 272 168 33 61 32 193 0 257 -16 31 -139 160 -403 420 l-381 375 372 378
c414 421 420 429 420 548 0 85 -22 147 -71 203 -78 88 -213 126 -324 90z"/>
<path d="M2685 4120 c-239 -42 -453 -152 -632 -322 -195 -187 -322 -423 -368
-682 -19 -113 -19 -308 0 -422 57 -330 253 -632 530 -816 217 -144 431 -208
697 -208 345 0 651 134 893 392 467 497 443 1273 -55 1741 -286 269 -680 387
-1065 317z m350 -595 c182 -38 352 -170 434 -335 125 -255 80 -540 -118 -735
-123 -121 -244 -174 -416 -182 -133 -6 -201 8 -323 68 -157 77 -282 235 -327
414 -19 76 -19 224 0 300 46 181 174 338 342 420 129 63 266 80 408 50z"/>
<path d="M7910 4124 c-39 -13 -99 -70 -432 -406 l-387 -391 -283 280 c-525
519 -506 504 -632 511 -107 6 -166 -18 -236 -95 -61 -66 -85 -137 -77 -223 8
-90 37 -142 129 -233 46 -45 218 -214 382 -376 l298 -293 -219 -222 c-579
-583 -566 -567 -572 -699 -3 -71 0 -84 28 -142 53 -107 146 -164 267 -165 128
0 139 8 552 430 200 203 368 370 373 370 4 0 176 -165 381 -367 421 -413 428
-418 553 -417 170 1 295 128 295 299 0 98 -29 156 -127 253 -43 43 -214 211
-379 374 l-302 297 362 368 c199 202 372 382 384 399 12 17 29 58 37 90 61
232 -163 434 -395 358z"/>
<path d="M160 2356 c0 -24 5 -36 14 -36 8 0 20 -2 28 -5 8 -3 18 6 25 26 14
37 38 34 38 -4 -1 -15 3 -27 7 -27 16 0 21 31 9 56 -15 33 -51 29 -69 -9 -14
-29 -32 -28 -32 3 0 10 -4 22 -10 25 -6 4 -10 -8 -10 -29z"/>
<path d="M235 2280 c-4 -6 -16 -8 -26 -5 -35 11 -60 -22 -40 -53 10 -17 91
-25 108 -11 18 15 16 44 -3 63 -18 19 -30 20 -39 6z m-27 -37 c-4 -22 -22 -20
-26 1 -2 10 3 16 13 16 10 0 15 -7 13 -17z m60 0 c-2 -10 -10 -18 -18 -18 -8
0 -16 8 -18 18 -2 12 3 17 18 17 15 0 20 -5 18 -17z"/>
<path d="M175 2164 c-17 -18 -17 -55 1 -61 6 -2 10 7 10 19 -1 33 34 35 64 3
32 -34 40 -32 40 15 0 44 -20 56 -21 13 0 -16 -3 -22 -6 -15 -4 11 -54 42 -67
42 -2 0 -12 -7 -21 -16z"/>
<path d="M188 2073 c-19 -5 -34 -45 -23 -62 11 -18 22 -12 21 12 -1 32 34 34
64 2 32 -34 40 -32 40 15 0 22 -4 40 -10 40 -5 0 -10 -12 -10 -27 -1 -24 -2
-26 -13 -12 -17 22 -49 36 -69 32z"/>
<path d="M226 1973 c-4 -4 -19 -7 -34 -8 -23 0 -27 -4 -27 -29 0 -16 5 -31 11
-33 7 -2 10 6 7 22 -4 18 -1 25 11 25 9 0 16 -7 16 -15 0 -22 17 -18 23 6 8
29 32 18 32 -14 -1 -30 12 -36 22 -11 14 37 -35 83 -61 57z"/>
<path d="M222 1868 c-5 -7 -12 -22 -14 -33 -4 -18 -6 -17 -18 8 -14 30 -33 38
-23 10 11 -31 46 -63 69 -63 27 0 54 25 54 49 0 35 -46 55 -68 29z m43 -34 c0
-10 -8 -20 -17 -22 -18 -3 -26 27 -11 42 12 11 28 0 28 -20z"/>
<path d="M236 1763 c-4 -5 -19 -8 -33 -8 -33 0 -52 -28 -37 -52 13 -21 91 -28
111 -11 18 14 16 43 -3 62 -17 18 -27 20 -38 9z m-28 -40 c-4 -22 -22 -20 -26
1 -2 10 3 16 13 16 10 0 15 -7 13 -17z m60 0 c-2 -10 -10 -18 -18 -18 -8 0
-16 8 -18 18 -2 12 3 17 18 17 15 0 20 -5 18 -17z"/>
<path d="M203 1653 c-54 -5 -56 -24 -6 -58 47 -32 63 -32 63 0 0 16 6 25 15
25 8 0 15 7 15 16 0 10 -6 14 -15 10 -8 -3 -15 -1 -15 4 0 6 -3 9 -7 8 -5 -1
-27 -3 -50 -5z m37 -50 c0 -10 -4 -11 -19 -3 -30 16 -33 28 -6 22 14 -2 25
-11 25 -19z"/>
<path d="M175 1534 c-17 -18 -17 -55 1 -61 6 -2 10 7 10 19 -1 33 34 35 64 3
32 -34 40 -32 40 15 0 44 -20 56 -21 13 0 -16 -3 -22 -6 -15 -4 11 -54 42 -67
42 -2 0 -12 -7 -21 -16z"/>
<path d="M196 1451 c-4 -6 -12 -9 -17 -6 -5 4 -9 2 -9 -4 0 -5 6 -12 13 -15 9
-5 9 -7 0 -12 -10 -4 -9 -9 2 -20 8 -9 20 -12 26 -8 6 3 14 1 18 -5 5 -8 15
-9 31 -3 19 7 21 10 7 15 -23 9 -22 28 1 20 12 -4 11 0 -7 17 -17 17 -25 20
-31 10 -6 -9 -10 -8 -17 5 -7 12 -12 14 -17 6z m39 -41 c-3 -5 -10 -10 -16
-10 -5 0 -9 5 -9 10 0 6 7 10 16 10 8 0 12 -4 9 -10z"/>
<path d="M140 1280 c0 -6 38 -10 95 -10 57 0 95 4 95 10 0 6 -38 10 -95 10
-57 0 -95 -4 -95 -10z"/>
<path d="M190 1197 c0 -9 10 -23 22 -31 22 -15 21 -16 -25 -16 -35 0 -47 -4
-47 -15 0 -12 15 -15 75 -15 60 0 75 3 75 15 0 9 -9 15 -22 16 l-23 0 23 16
c12 8 22 22 22 30 0 11 -6 9 -27 -6 l-26 -21 -24 22 c-19 18 -23 19 -23 5z"/>
<path d="M190 1084 c0 -32 20 -54 50 -54 30 0 50 22 50 54 0 25 -18 19 -22 -6
-2 -17 -10 -23 -28 -23 -18 0 -26 6 -28 23 -4 25 -22 31 -22 6z"/>
<path d="M206 994 c-19 -18 -20 -28 -6 -55 12 -22 59 -26 78 -7 26 26 1 78
-38 78 -10 0 -26 -7 -34 -16z m59 -29 c0 -22 -31 -33 -47 -17 -17 17 -1 44 24
40 15 -2 23 -10 23 -23z"/>
<path d="M190 900 c0 -5 -7 -10 -15 -10 -8 0 -15 -4 -15 -10 0 -5 6 -10 14
-10 8 0 17 -6 20 -12 5 -10 7 -10 12 0 3 6 21 12 40 12 34 0 56 22 39 38 -4 4
-10 1 -12 -5 -5 -15 -63 -18 -63 -3 0 6 -4 10 -10 10 -5 0 -10 -4 -10 -10z"/>
<path d="M212 810 c-19 -34 -35 -34 -40 -2 -5 30 -22 28 -22 -2 0 -50 54 -61
77 -16 17 34 38 32 38 -3 -1 -32 18 -31 23 2 8 53 -49 69 -76 21z"/>
<path d="M202 678 c-29 -29 -5 -68 40 -68 33 0 56 37 43 67 -7 16 -9 15 -13
-7 -6 -40 -22 -48 -22 -12 0 24 -4 32 -18 32 -10 0 -23 -5 -30 -12z m28 -29
c0 -11 -4 -17 -10 -14 -5 3 -10 13 -10 21 0 8 5 14 10 14 6 0 10 -9 10 -21z"/>
<path d="M202 578 c-7 -7 -12 -20 -12 -30 0 -13 -8 -18 -25 -18 -16 0 -25 -6
-25 -15 0 -13 13 -15 73 -13 67 3 72 5 75 26 7 46 -55 81 -86 50z m56 -20 c19
-19 14 -28 -18 -28 -18 0 -30 5 -30 13 0 28 27 36 48 15z"/>
<path d="M206 464 c-19 -18 -20 -28 -6 -55 12 -22 59 -26 78 -7 26 26 1 78
-38 78 -10 0 -26 -7 -34 -16z m59 -29 c0 -22 -31 -33 -47 -17 -17 17 -1 44 24
40 15 -2 23 -10 23 -23z"/>
<path d="M198 363 c-55 -4 -84 -23 -34 -23 17 0 26 -7 30 -25 10 -40 78 -47
92 -10 9 22 -4 65 -19 63 -6 -1 -38 -3 -69 -5z m70 -40 c-2 -12 -12 -18 -28
-18 -16 0 -26 6 -28 18 -3 13 3 17 28 17 25 0 31 -4 28 -17z"/>
<path d="M220 246 c-36 -13 -66 -29 -68 -37 -1 -9 20 -21 68 -35 38 -12 70
-17 70 -12 0 6 -9 12 -20 15 -14 4 -20 14 -20 34 0 22 5 29 20 29 11 0 20 7
20 15 0 8 -1 15 -2 14 -2 0 -32 -11 -68 -23z m8 -44 c-1 -5 -14 -5 -28 -1
l-25 6 25 10 c24 10 36 3 28 -15z"/>
</g>
</svg>
